<svg xmlns="http://www.w3.org/2000/svg" viewBox="0 0 640 400" version="1.1">
    <line x1="320" y1="50" x2="240" y2="100" stroke-width="1" stroke="black"/>
    <line x1="240" y1="100" x2="200" y2="150" stroke-width="1" stroke="black"/>
    <circle cx="200" cy="150" fill="white" r="10"> </circle>
    <text x="200" y="155" text-anchor="middle">1</text>
    <line x1="240" y1="100" x2="280" y2="150" stroke-width="1" stroke="black"/>
    <line x1="280" y1="150" x2="260" y2="200" stroke-width="1" stroke="black"/>
    <circle cx="260" cy="200" fill="white" r="10"> </circle>
    <text x="260" y="205" text-anchor="middle">3</text>
    <line x1="280" y1="150" x2="300" y2="200" stroke-width="1" stroke="black"/>
    <circle cx="300" cy="200" fill="white" r="10"> </circle>
    <text x="300" y="205" text-anchor="middle">5</text>
    <circle cx="280" cy="150" fill="white" r="10"> </circle>
    <text x="280" y="155" text-anchor="middle">4</text>
    <circle cx="240" cy="100" fill="white" r="10"> </circle>
    <text x="240" y="105" text-anchor="middle">2</text>
    <line x1="320" y1="50" x2="400" y2="100" stroke-width="1" stroke="black"/>
    <line x1="400" y1="100" x2="440" y2="150" stroke-width="1" stroke="black"/>
    <line x1="440" y1="150" x2="420" y2="200" stroke-width="1" stroke="black"/>
    <circle cx="420" cy="200" fill="white" r="10"> </circle>
    <text x="420" y="205" text-anchor="middle">8</text>
    <circle cx="440" cy="150" fill="white" r="10"> </circle>
    <text x="440" y="155" text-anchor="middle">9</text>
    <circle cx="400" cy="100" fill="white" r="10"> </circle>
    <text x="400" y="105" text-anchor="middle">7</text>
    <circle cx="320" cy="50" fill="white" r="10"> </circle>
    <text x="320" y="55" text-anchor="middle">6</text>
</svg>
