<svg xmlns="http://www.w3.org/2000/svg" viewBox="0 0 640 400" version="1.1">
<line x1="320" y1="50" x2="240" y2="100" stroke-width="1" stroke="black"/>
<line x1="240" y1="100" x2="200" y2="150" stroke-width="1" stroke="black"/>
<circle cx="200" cy="150" fill="white" r="10"> </circle>
<text x="200" y="155" text-anchor="middle">1</text>
<line x1="240" y1="100" x2="280" y2="150" stroke-width="1" stroke="black"/>
<line x1="280" y1="150" x2="260" y2="200" stroke-width="1" stroke="black"/>
<circle cx="260" cy="200" fill="white" r="10"> </circle>
<text x="260" y="205" text-anchor="middle">3</text>
<circle cx="280" cy="150" fill="white" r="10"> </circle>
<text x="280" y="155" text-anchor="middle">4</text>
<circle cx="240" cy="100" fill="white" r="10"> </circle>
<text x="240" y="105" text-anchor="middle">2</text>
<line x1="320" y1="50" x2="400" y2="100" stroke-width="1" stroke="black"/>
<line x1="400" y1="100" x2="360" y2="150" stroke-width="1" stroke="black"/>
<line x1="360" y1="150" x2="340" y2="200" stroke-width="1" stroke="black"/>
<circle cx="340" cy="200" fill="white" r="10"> </circle>
<text x="340" y="205" text-anchor="middle">6</text>
<line x1="360" y1="150" x2="380" y2="200" stroke-width="1" stroke="black"/>
<circle cx="380" cy="200" fill="white" r="10"> </circle>
<text x="380" y="205" text-anchor="middle">8</text>
<circle cx="360" cy="150" fill="white" r="10"> </circle>
<text x="360" y="155" text-anchor="middle">7</text>
<circle cx="400" cy="100" fill="white" r="10"> </circle>
<text x="400" y="105" text-anchor="middle">9</text>
<circle cx="320" cy="50" fill="white" r="10"> </circle>
<text x="320" y="55" text-anchor="middle">5</text>
</svg>
